# xmcd
#
# Track frame offsets:
#	150
#	12311
#	25741
#	42141
#	53901
#	66633
#	77371
#	90728
#	104499
#	115263
#	124513
#	137668
#	148939
#	161924
#	173792
#	188921
#	202622
#	215593
#	226653
#	237741
#
# Disc length: 3347 seconds
#
# Revision: 0
# Processed by: cddbd v1.5.2PL0 Copyright (c) Steve Scherf et al.
# Submitted via: dBpowerAMP V4.0
#
DISCID=170d1114
DTITLE=Tammy Wynette - Stand By Your Man The Best Of Tammy Wynette
DYEAR=2008
DGENRE=Country
TTITLE0=Stand By Your Man
TTITLE1=D-I-V-O-R-C-E
TTITLE2=Justified And Ancient
TTITLE3=I Don't Wanna Play House
TTITLE4=Take Me To Your World
TTITLE5=Singing My Song
TTITLE6=We're Gonna Hold On
TTITLE7='Til I Can Make It On My Own
TTITLE8=Near You
TTITLE9=Your Good Girl's Gonna Go Bad
TTITLE10=Kids Say The Darndest Things
TTITLE11=Good Lovin' (Makes It Right)
TTITLE12=My Elusive Dreams
TTITLE13=He Loves Me All The Way
TTITLE14=You And Me
TTITLE15=Golden Ring
TTITLE16=My Man (Understands)
TTITLE17=Run, Woman, Run
TTITLE18=The Ways To Love A Man
TTITLE19=Woman To Woman
EXTD=In the British CD chart this week.
EXTT0=
EXTT1=
EXTT2=
EXTT3=
EXTT4=
EXTT5=
EXTT6=
EXTT7=
EXTT8=
EXTT9=
EXTT10=
EXTT11=
EXTT12=
EXTT13=
EXTT14=
EXTT15=
EXTT16=
EXTT17=
EXTT18=
EXTT19=
PLAYORDER=
